<svg width="68" height="74" viewBox="0 0 68 74" fill="none" xmlns="http://www.w3.org/2000/svg">
<g filter="url(#filter0_d_223_5918)">
<mask id="path-1-outside-1_223_5918" maskUnits="userSpaceOnUse" x="12" y="10" width="44" height="50" fill="black">
<rect fill="white" x="12" y="10" width="44" height="50"/>
<path fill-rule="evenodd" clip-rule="evenodd" d="M34 12C22.9543 12 14 20.9543 14 32C14 41.9504 21.2666 50.2036 30.7826 51.7426L34.4545 57.4545L38.2522 51.547C47.2552 49.5977 54 41.5865 54 32C54 20.9543 45.0457 12 34 12Z"/>
</mask>
<path fill-rule="evenodd" clip-rule="evenodd" d="M34 12C22.9543 12 14 20.9543 14 32C14 41.9504 21.2666 50.2036 30.7826 51.7426L34.4545 57.4545L38.2522 51.547C47.2552 49.5977 54 41.5865 54 32C54 20.9543 45.0457 12 34 12Z" fill="#005A7A"/>
<path d="M30.7826 51.7426L32.4649 50.661C32.1579 50.1835 31.6623 49.8589 31.1018 49.7682L30.7826 51.7426ZM34.4545 57.4545L32.7722 58.5361C33.1402 59.1085 33.774 59.4545 34.4545 59.4545C35.1351 59.4545 35.7689 59.1085 36.1369 58.5361L34.4545 57.4545ZM38.2522 51.547L37.829 49.5923C37.31 49.7047 36.857 50.0188 36.5699 50.4655L38.2522 51.547ZM16 32C16 22.0589 24.0589 14 34 14V10C21.8497 10 12 19.8497 12 32H16ZM31.1018 49.7682C22.5391 48.3835 16 40.9535 16 32H12C12 42.9474 19.9941 52.0238 30.4633 53.7169L31.1018 49.7682ZM29.1002 52.8241L32.7722 58.5361L36.1369 56.373L32.4649 50.661L29.1002 52.8241ZM36.1369 58.5361L39.9346 52.6285L36.5699 50.4655L32.7722 56.373L36.1369 58.5361ZM52 32C52 40.6254 45.9312 47.838 37.829 49.5923L38.6755 53.5017C48.5793 51.3574 56 42.5476 56 32H52ZM34 14C43.9411 14 52 22.0589 52 32H56C56 19.8497 46.1503 10 34 10V14Z" fill="white" mask="url(#path-1-outside-1_223_5918)"/>
</g>
<path d="M36.625 27.125C37.45 27.125 38.125 26.45 38.125 25.625C38.125 24.8 37.45 24.125 36.625 24.125C35.8 24.125 35.125 24.8 35.125 25.625C35.125 26.45 35.8 27.125 36.625 27.125ZM28.75 32C26.65 32 25 33.65 25 35.75C25 37.85 26.65 39.5 28.75 39.5C30.85 39.5 32.5 37.85 32.5 35.75C32.5 33.65 30.85 32 28.75 32ZM28.75 38.375C27.325 38.375 26.125 37.175 26.125 35.75C26.125 34.325 27.325 33.125 28.75 33.125C30.175 33.125 31.375 34.325 31.375 35.75C31.375 37.175 30.175 38.375 28.75 38.375ZM33.1 30.875L34.9 29.075L35.5 29.675C36.475 30.65 37.75 31.25 39.325 31.25V29.75C38.2 29.75 37.3 29.3 36.625 28.625L35.2 27.2C34.825 26.9 34.45 26.75 34 26.75C33.55 26.75 33.175 26.9 32.95 27.2L30.85 29.3C30.55 29.6 30.4 29.975 30.4 30.35C30.4 30.8 30.55 31.175 30.85 31.4L33.25 33.5V37.25H34.75V32.6L33.1 30.875ZM39.25 32C37.15 32 35.5 33.65 35.5 35.75C35.5 37.85 37.15 39.5 39.25 39.5C41.35 39.5 43 37.85 43 35.75C43 33.65 41.35 32 39.25 32ZM39.25 38.375C37.825 38.375 36.625 37.175 36.625 35.75C36.625 34.325 37.825 33.125 39.25 33.125C40.675 33.125 41.875 34.325 41.875 35.75C41.875 37.175 40.675 38.375 39.25 38.375Z" fill="white"/>
<defs>
<filter id="filter0_d_223_5918" x="0" y="0" width="68" height="73.4546" filterUnits="userSpaceOnUse" color-interpolation-filters="sRGB">
<feFlood flood-opacity="0" result="BackgroundImageFix"/>
<feColorMatrix in="SourceAlpha" type="matrix" values="0 0 0 0 0 0 0 0 0 0 0 0 0 0 0 0 0 0 127 0" result="hardAlpha"/>
<feOffset dy="2"/>
<feGaussianBlur stdDeviation="6"/>
<feColorMatrix type="matrix" values="0 0 0 0 0.0784314 0 0 0 0 0.145098 0 0 0 0 0.313726 0 0 0 0.04 0"/>
<feBlend mode="normal" in2="BackgroundImageFix" result="effect1_dropShadow_223_5918"/>
<feBlend mode="normal" in="SourceGraphic" in2="effect1_dropShadow_223_5918" result="shape"/>
</filter>
</defs>
</svg>
