<svg width="32" height="27" viewBox="0 0 32 27" fill="none" xmlns="http://www.w3.org/2000/svg">
<path d="M20.4146 5.26829C21.8634 5.26829 23.0488 4.08293 23.0488 2.63415C23.0488 1.18537 21.8634 0 20.4146 0C18.9659 0 17.7805 1.18537 17.7805 2.63415C17.7805 4.08293 18.9659 5.26829 20.4146 5.26829ZM6.58537 13.8293C2.89756 13.8293 0 16.7268 0 20.4146C0 24.1024 2.89756 27 6.58537 27C10.2732 27 13.1707 24.1024 13.1707 20.4146C13.1707 16.7268 10.2732 13.8293 6.58537 13.8293ZM6.58537 25.0244C4.08293 25.0244 1.97561 22.9171 1.97561 20.4146C1.97561 17.9122 4.08293 15.8049 6.58537 15.8049C9.0878 15.8049 11.1951 17.9122 11.1951 20.4146C11.1951 22.9171 9.0878 25.0244 6.58537 25.0244ZM14.2244 11.8537L17.3854 8.69268L18.439 9.74634C20.1512 11.4585 22.3902 12.5122 25.1561 12.5122V9.87805C23.1805 9.87805 21.6 9.0878 20.4146 7.90244L17.9122 5.4C17.2537 4.87317 16.5951 4.60976 15.8049 4.60976C15.0146 4.60976 14.3561 4.87317 13.961 5.4L10.2732 9.0878C9.74634 9.61463 9.48293 10.2732 9.48293 10.9317C9.48293 11.722 9.74634 12.3805 10.2732 12.7756L14.4878 16.4634V23.0488H17.122V14.8829L14.2244 11.8537ZM25.0244 13.8293C21.3366 13.8293 18.439 16.7268 18.439 20.4146C18.439 24.1024 21.3366 27 25.0244 27C28.7122 27 31.6098 24.1024 31.6098 20.4146C31.6098 16.7268 28.7122 13.8293 25.0244 13.8293ZM25.0244 25.0244C22.5219 25.0244 20.4146 22.9171 20.4146 20.4146C20.4146 17.9122 22.5219 15.8049 25.0244 15.8049C27.5268 15.8049 29.6341 17.9122 29.6341 20.4146C29.6341 22.9171 27.5268 25.0244 25.0244 25.0244Z" fill="#4E4E4E"/>
</svg>
