<svg width="34" height="34" viewBox="0 0 34 34" fill="none" xmlns="http://www.w3.org/2000/svg">
<path d="M14.9832 9.58203H17.6832V12.282H14.9832V9.58203ZM14.9832 14.982H17.6832V23.082H14.9832V14.982ZM16.3333 2.83203C8.88125 2.83203 2.83325 8.88003 2.83325 16.332C2.83325 23.784 8.88125 29.832 16.3333 29.832C23.7852 29.832 29.8332 23.784 29.8332 16.332C29.8332 8.88003 23.7852 2.83203 16.3333 2.83203ZM16.3333 27.132C10.3798 27.132 5.53325 22.2855 5.53325 16.332C5.53325 10.3785 10.3798 5.53203 16.3333 5.53203C22.2867 5.53203 27.1332 10.3785 27.1332 16.332C27.1332 22.2855 22.2867 27.132 16.3333 27.132Z" fill="#4E4E4E"/>
</svg>
