<svg width="28" height="28" viewBox="0 0 28 28" fill="none" xmlns="http://www.w3.org/2000/svg">
<path d="M12.9833 7.58203H15.6833V10.282H12.9833V7.58203ZM12.9833 12.982H15.6833V21.082H12.9833V12.982ZM14.3333 0.832031C6.88131 0.832031 0.833313 6.88003 0.833313 14.332C0.833313 21.784 6.88131 27.832 14.3333 27.832C21.7853 27.832 27.8333 21.784 27.8333 14.332C27.8333 6.88003 21.7853 0.832031 14.3333 0.832031ZM14.3333 25.132C8.37981 25.132 3.53331 20.2855 3.53331 14.332C3.53331 8.37853 8.37981 3.53203 14.3333 3.53203C20.2868 3.53203 25.1333 8.37853 25.1333 14.332C25.1333 20.2855 20.2868 25.132 14.3333 25.132Z" fill="#1DFFFF"/>
</svg>
