<svg width="39" height="43" viewBox="0 0 39 43" fill="none" xmlns="http://www.w3.org/2000/svg">
<circle cx="19.5" cy="22.6595" r="19.5" fill="#FFB82E"/>
<rect x="6" y="19.7554" width="3.31915" height="4.14894" rx="1.65957" fill="#081B2C"/>
<rect x="29.234" y="19.7554" width="3.31915" height="4.14894" rx="1.65957" fill="#081B2C"/>
<path d="M26 25.8405C26 29.1542 23.0899 31.8405 19.5 31.8405C15.9101 31.8405 13 29.1542 13 25.8405" stroke="#081B2C" stroke-width="1.4" stroke-linecap="round"/>
<path d="M13.2864 6.64429C14.2313 5.36756 16.8205 3.04403 19.619 3.96376C22.4175 4.88349 25.64 2.29191 26.9014 0.881157" stroke="#081B2C" stroke-width="1.4" stroke-linecap="round"/>
<path d="M14.9052 9.51087C15.85 8.23414 18.4393 5.91061 21.2378 6.83034C24.0363 7.75007 27.2588 5.15849 28.5202 3.74773" stroke="#081B2C" stroke-width="1.4" stroke-linecap="round"/>
<path d="M16.5241 12.3774C17.4689 11.1007 20.0582 8.77719 22.8567 9.69692C25.6552 10.6166 28.8777 8.02507 30.1391 6.61431" stroke="#081B2C" stroke-width="1.4" stroke-linecap="round"/>
</svg>
