<svg width="51" height="59" viewBox="0 0 51 59" fill="none" xmlns="http://www.w3.org/2000/svg">
<path d="M6.37505 36.9758L25.5 53.5508L31.875 49.7258L40.8 38.2508L47.175 30.6008L48.45 20.4008L42.075 11.4758L33.15 3.82578L20.4 2.55078L8.92505 10.2008L2.55005 20.4008L6.37505 36.9758Z" fill="#1DFFFF"/>
<path d="M25.5 29.325C21.9938 29.325 19.125 26.6857 19.125 23.46C19.125 20.2342 21.9938 17.595 25.5 17.595C29.0063 17.595 31.875 20.2342 31.875 23.46C31.875 26.6857 29.0063 29.325 25.5 29.325ZM44.625 24.0465C44.625 13.4015 36.1781 5.865 25.5 5.865C14.8219 5.865 6.375 13.4015 6.375 24.0465C6.375 30.9085 12.5906 39.9993 25.5 50.8495C38.4094 39.9993 44.625 30.9085 44.625 24.0465ZM25.5 0C38.8875 0 51 9.44265 51 24.0465C51 33.7824 42.4894 45.3071 25.5 58.65C8.51063 45.3071 0 33.7824 0 24.0465C0 9.44265 12.1125 0 25.5 0Z" fill="#4E4E4E"/>
</svg>
