<svg width="68" height="74" viewBox="0 0 68 74" fill="none" xmlns="http://www.w3.org/2000/svg">
<g filter="url(#filter0_d_110_1987)">
<mask id="path-1-outside-1_110_1987" maskUnits="userSpaceOnUse" x="12" y="10" width="44" height="50" fill="black">
<rect fill="white" x="12" y="10" width="44" height="50"/>
<path fill-rule="evenodd" clip-rule="evenodd" d="M34 12C22.9543 12 14 20.9543 14 32C14 41.9504 21.2666 50.2036 30.7826 51.7426L34.4545 57.4545L38.2522 51.547C47.2552 49.5977 54 41.5865 54 32C54 20.9543 45.0457 12 34 12Z"/>
</mask>
<path fill-rule="evenodd" clip-rule="evenodd" d="M34 12C22.9543 12 14 20.9543 14 32C14 41.9504 21.2666 50.2036 30.7826 51.7426L34.4545 57.4545L38.2522 51.547C47.2552 49.5977 54 41.5865 54 32C54 20.9543 45.0457 12 34 12Z" fill="#8A9298"/>
<path d="M30.7826 51.7426L32.4649 50.661C32.1579 50.1835 31.6623 49.8589 31.1018 49.7682L30.7826 51.7426ZM34.4545 57.4545L32.7722 58.5361C33.1402 59.1085 33.774 59.4545 34.4545 59.4545C35.1351 59.4545 35.7689 59.1085 36.1369 58.5361L34.4545 57.4545ZM38.2522 51.547L37.829 49.5923C37.31 49.7047 36.857 50.0188 36.5699 50.4655L38.2522 51.547ZM16 32C16 22.0589 24.0589 14 34 14V10C21.8497 10 12 19.8497 12 32H16ZM31.1018 49.7682C22.5391 48.3835 16 40.9535 16 32H12C12 42.9474 19.9941 52.0238 30.4633 53.7169L31.1018 49.7682ZM29.1002 52.8241L32.7722 58.5361L36.1369 56.373L32.4649 50.661L29.1002 52.8241ZM36.1369 58.5361L39.9346 52.6285L36.5699 50.4655L32.7722 56.373L36.1369 58.5361ZM52 32C52 40.6254 45.9312 47.838 37.829 49.5923L38.6755 53.5017C48.5793 51.3574 56 42.5476 56 32H52ZM34 14C43.9411 14 52 22.0589 52 32H56C56 19.8497 46.1503 10 34 10V14Z" fill="white" mask="url(#path-1-outside-1_110_1987)"/>
</g>
<rect x="14" y="12" width="40" height="40" rx="20" fill="#8A9298"/>
<path d="M24.085 26.31C23.371 28.424 22.167 30.51 20.893 31.868C21.061 32.106 21.355 32.638 21.453 32.89C21.845 32.428 22.251 31.924 22.629 31.364V39.064H23.595V29.796C24.141 28.788 24.631 27.696 25.037 26.604L24.085 26.31ZM25.947 35.48H28.691V37.902C28.691 38.07 28.621 38.112 28.411 38.126C28.187 38.14 27.417 38.14 26.577 38.112C26.731 38.392 26.871 38.742 26.913 39.022C28.005 39.022 28.719 39.022 29.153 38.882C29.587 38.742 29.713 38.476 29.713 37.93V35.48H32.359V34.626H25.947V35.48ZM24.729 34.976H25.639V33.59H32.695V34.976H33.633V32.722H24.729V34.976ZM31.477 31.084H26.913V29.936H31.477V31.084ZM25.947 29.18V31.854H32.485V29.18H25.947ZM29.923 27.542C29.769 27.15 29.475 26.604 29.195 26.212L28.271 26.492C28.467 26.814 28.649 27.192 28.803 27.542H24.939V28.424H33.647V27.542H29.923ZM45.937 31.196V32.134H43.781V31.196H45.937ZM45.937 33.744H43.781V32.806H45.937V33.744ZM40.701 33.744V32.806H42.773V33.744H40.701ZM40.701 31.196H42.773V32.134H40.701V31.196ZM40.001 27.598H46.497V28.872H43.781V28.172H42.773V28.872H40.127V29.642H42.773V30.496H39.819V34.458H42.773V35.34H39.119V36.166H42.773V37.3H43.781V36.166H47.673V35.34H43.781V34.458H46.847V30.496H43.781V29.642H46.497V29.264H47.491V26.786H39.035V29.264H40.001V27.598ZM38.293 28.452C37.943 27.878 37.243 26.996 36.641 26.31L35.843 26.744C36.417 27.444 37.145 28.41 37.467 28.998L38.293 28.452ZM38.279 32.932L38.097 32.96H36.641C37.411 32.008 38.405 30.566 38.951 29.74L38.265 29.432L38.111 29.502H35.339V30.37H37.467C36.893 31.238 36.109 32.344 35.815 32.652C35.577 32.918 35.367 33.002 35.157 33.058C35.269 33.282 35.465 33.758 35.535 34.01C35.633 33.898 36.011 33.814 36.347 33.814H37.705C37.285 35.97 36.361 37.51 35.115 38.378C35.325 38.518 35.661 38.882 35.801 39.092C36.473 38.588 37.075 37.888 37.551 36.978C38.657 38.56 40.407 38.84 43.249 38.84C44.775 38.84 46.525 38.812 47.855 38.728C47.897 38.448 48.023 37.986 48.177 37.762C46.763 37.888 44.733 37.944 43.263 37.944C40.617 37.944 38.839 37.72 37.957 36.152C38.293 35.298 38.573 34.276 38.755 33.128L38.279 32.932Z" fill="white"/>
<defs>
<filter id="filter0_d_110_1987" x="0" y="0" width="68" height="73.4546" filterUnits="userSpaceOnUse" color-interpolation-filters="sRGB">
<feFlood flood-opacity="0" result="BackgroundImageFix"/>
<feColorMatrix in="SourceAlpha" type="matrix" values="0 0 0 0 0 0 0 0 0 0 0 0 0 0 0 0 0 0 127 0" result="hardAlpha"/>
<feOffset dy="2"/>
<feGaussianBlur stdDeviation="6"/>
<feColorMatrix type="matrix" values="0 0 0 0 0.0784314 0 0 0 0 0.145098 0 0 0 0 0.313726 0 0 0 0.04 0"/>
<feBlend mode="normal" in2="BackgroundImageFix" result="effect1_dropShadow_110_1987"/>
<feBlend mode="normal" in="SourceGraphic" in2="effect1_dropShadow_110_1987" result="shape"/>
</filter>
</defs>
</svg>
